<svg width="180" height="66" viewBox="0 0 180 66" fill="none" xmlns="http://www.w3.org/2000/svg">
<path fill-rule="evenodd" clip-rule="evenodd" d="M47.8571 0H60.8469H76.5714L38.2857 65.4617L0 0H30.0816L38.2857 15.0408L47.8571 0ZM18.6301 5.46938H9.4005L38.2857 54.6938L66.9999 5.46938H57.7704L38.2857 39.3112L18.6301 5.46938ZM84.1937 12.8478C83.6793 13.1567 83.4222 13.5428 83.4222 14.0061H83.4226C83.4226 14.0678 83.4538 14.1914 83.5161 14.3767L93.1017 45.1862C93.3822 46.0818 94.1771 46.5297 95.4865 46.5297C96.7958 46.5297 97.6218 46.0819 97.9647 45.1862L107.457 14.3767C107.457 14.3149 107.465 14.2531 107.48 14.1914C107.496 14.1296 107.504 14.0833 107.504 14.0524C107.504 13.6199 107.247 13.2339 106.732 12.8941C106.218 12.5544 105.665 12.3845 105.072 12.3845C104.355 12.3845 103.888 12.6779 103.67 13.2648L95.4864 40.7847L87.2565 13.2648C87.0695 12.6779 86.5863 12.3845 85.8069 12.3845C85.2458 12.3845 84.7081 12.5389 84.1937 12.8478ZM107.872 25.6812V37.7266H107.872C107.872 40.1049 108.784 42.182 110.608 43.958C112.432 45.734 114.606 46.622 117.131 46.622C119.625 46.622 121.784 45.734 123.607 43.958C125.431 42.182 126.343 40.1049 126.343 37.7266V25.6341C126.343 25.2635 126.164 24.9469 125.805 24.6844C125.447 24.4218 124.987 24.2906 124.426 24.2906C123.896 24.2906 123.436 24.4296 123.046 24.7075C122.657 24.9855 122.462 25.2944 122.462 25.6341V37.7266C122.462 39.1474 121.932 40.4061 120.872 41.5025C119.812 42.599 118.565 43.1472 117.131 43.1472C115.666 43.1472 114.403 42.5913 113.343 41.4793C112.283 40.3674 111.753 39.1165 111.753 37.7266V25.6812C111.753 25.3414 111.559 25.0248 111.169 24.7314C110.779 24.438 110.335 24.2913 109.836 24.2913C109.306 24.2913 108.847 24.4303 108.457 24.7082C108.067 24.9862 107.872 25.3105 107.872 25.6812ZM129.516 32.7693V37.634L129.516 37.6341C129.516 40.3213 130.482 42.491 132.415 44.1434C134.348 45.7959 136.842 46.6221 139.897 46.6221C141.985 46.6221 143.739 46.2514 145.157 45.5101C146.576 44.7689 147.285 44.0431 147.285 43.3327C147.285 42.9312 147.129 42.5374 146.817 42.1513C146.506 41.7652 146.132 41.5722 145.695 41.5722C145.415 41.5722 145.041 41.7189 144.573 42.0123C144.105 42.3057 143.49 42.6068 142.726 42.9157C141.962 43.2246 141.066 43.379 140.037 43.379C138.073 43.379 136.476 42.8694 135.244 41.8501C134.013 40.8308 133.397 39.4718 133.397 37.7731V36.3832H143.638C144.293 36.3832 144.815 36.3523 145.204 36.2905C145.594 36.2287 146.015 36.082 146.467 35.8504C146.919 35.6187 147.254 35.2327 147.472 34.6921C147.691 34.1515 147.8 33.4334 147.8 32.5377C147.8 30.0977 146.911 28.0669 145.134 26.4454C143.357 24.8238 141.253 24.013 138.822 24.013C136.265 24.013 134.075 24.8778 132.252 26.6075C130.428 28.3372 129.516 30.391 129.516 32.7693ZM142.048 33.7886H133.397L133.397 32.1207C133.397 30.6999 133.927 29.5031 134.987 28.5301C136.047 27.5572 137.31 27.0708 138.775 27.0708C140.271 27.0708 141.534 27.5959 142.562 28.646C143.591 29.6962 144.106 30.9162 144.106 32.3061C144.106 32.8929 143.965 33.2867 143.685 33.4875C143.404 33.6883 142.859 33.7886 142.048 33.7886ZM150.459 42.3827C149.992 42.8614 149.758 43.4405 149.758 44.12C149.758 44.7687 149.992 45.3324 150.459 45.8111C150.927 46.2898 151.504 46.5292 152.189 46.5292C152.844 46.5292 153.405 46.2898 153.873 45.8111C154.34 45.3324 154.574 44.7687 154.574 44.12C154.574 43.4406 154.34 42.8614 153.873 42.3827C153.405 41.904 152.844 41.6646 152.189 41.6646C151.504 41.6646 150.927 41.904 150.459 42.3827ZM153.68 53.9653C153.368 54.2896 153.212 54.6988 153.212 55.193C153.212 56.305 153.883 56.8609 155.223 56.8609C157.374 56.8609 158.979 56.0734 160.039 54.4981C161.099 52.9229 161.629 50.7918 161.629 48.1046V25.6345C161.629 25.233 161.442 24.9087 161.068 24.6616C160.694 24.4145 160.226 24.2909 159.665 24.2909C159.104 24.2909 158.644 24.4145 158.286 24.6616C157.927 24.9087 157.748 25.233 157.748 25.6345V48.1046C157.748 49.8961 157.561 51.2396 157.187 52.1353C156.813 53.031 156.018 53.4788 154.802 53.4788C154.366 53.4788 153.992 53.641 153.68 53.9653ZM157.935 14.5153C157.467 14.9477 157.234 15.4573 157.234 16.0442C157.234 16.631 157.475 17.1484 157.958 17.5962C158.442 18.0441 159.011 18.268 159.665 18.268C160.32 18.268 160.881 18.0441 161.349 17.5962C161.816 17.1484 162.05 16.631 162.05 16.0442C162.05 15.4573 161.816 14.9477 161.349 14.5153C160.881 14.0829 160.32 13.8667 159.665 13.8667C158.979 13.8667 158.403 14.0829 157.935 14.5153ZM164.92 41.9191C164.655 42.3052 164.522 42.699 164.522 43.1005L164.522 43.1005C164.522 43.9344 165.271 44.7297 166.767 45.4865C168.263 46.2432 170.071 46.6216 172.191 46.6216C174.654 46.6216 176.571 46.0656 177.943 44.9537C179.314 43.8418 180 42.3284 180 40.4134C180 38.869 179.61 37.6104 178.831 36.6375C178.052 35.6646 177.101 34.9774 175.979 34.5758C174.856 34.1743 173.726 33.8345 172.588 33.5565C171.451 33.2786 170.492 32.8924 169.713 32.3983C168.933 31.9041 168.544 31.2246 168.544 30.3598C168.544 29.5258 168.894 28.7768 169.596 28.1128C170.297 27.4487 171.365 27.1167 172.799 27.1167C173.859 27.1167 174.926 27.3406 176.002 27.7884C177.077 28.2363 177.677 28.4602 177.802 28.4602C178.239 28.4602 178.605 28.2286 178.901 27.7653C179.197 27.302 179.345 26.885 179.345 26.5144C179.345 25.8658 178.66 25.2867 177.288 24.7771C175.916 24.2674 174.404 24.0126 172.752 24.0126C170.165 24.0126 168.24 24.6535 166.977 25.9353C165.715 27.2171 165.083 28.7383 165.083 30.4988C165.083 31.9195 165.473 33.0623 166.252 33.9271C167.032 34.792 167.983 35.4097 169.105 35.7804C170.227 36.151 171.349 36.4908 172.472 36.7996C173.594 37.1085 174.545 37.5641 175.324 38.1664C176.103 38.7687 176.493 39.5794 176.493 40.5987C176.493 41.4327 176.142 42.1276 175.441 42.6836C174.74 43.2395 173.61 43.5175 172.051 43.5175C170.866 43.5175 169.838 43.3399 168.965 42.9847C168.092 42.6295 167.422 42.2666 166.954 41.896C166.486 41.5253 166.128 41.34 165.879 41.34C165.504 41.34 165.185 41.533 164.92 41.9191Z" fill="white"/>
</svg>
